<svg height="1024" width="1024" xmlns="http://www.w3.org/2000/svg">
    <rect fill="#008000" height="1024" width="1024" x="0" y="0" />
    <rect fill="#FFFFFF" height="776" width="968" x="28" y="124" />
    <rect fill="#000000" height="96" width="96" x="128" y="128" />
    <rect fill="#000000" height="96" width="96" x="320" y="128" />
    <rect fill="#000000" height="96" width="96" x="512" y="128" />
    <rect fill="#000000" height="96" width="96" x="704" y="128" />
    <rect fill="#000000" height="96" width="96" x="896" y="128" />
    <rect fill="#000000" height="96" width="96" x="32" y="224" />
    <rect fill="#000000" height="96" width="96" x="224" y="224" />
    <rect fill="#000000" height="96" width="96" x="416" y="224" />
    <rect fill="#000000" height="96" width="96" x="608" y="224" />
    <rect fill="#000000" height="96" width="96" x="800" y="224" />
    <rect fill="#000000" height="96" width="96" x="128" y="320" />
    <rect fill="#000000" height="96" width="96" x="320" y="320" />
    <rect fill="#000000" height="96" width="96" x="512" y="320" />
    <rect fill="#000000" height="96" width="96" x="704" y="320" />
    <rect fill="#000000" height="96" width="96" x="896" y="320" />
    <rect fill="#000000" height="96" width="96" x="32" y="416" />
    <rect fill="#000000" height="96" width="96" x="224" y="416" />
    <rect fill="#000000" height="96" width="96" x="416" y="416" />
    <rect fill="#000000" height="96" width="96" x="608" y="416" />
    <rect fill="#000000" height="96" width="96" x="800" y="416" />
    <rect fill="#000000" height="96" width="96" x="128" y="512" />
    <rect fill="#000000" height="96" width="96" x="320" y="512" />
    <rect fill="#000000" height="96" width="96" x="512" y="512" />
    <rect fill="#000000" height="96" width="96" x="704" y="512" />
    <rect fill="#000000" height="96" width="96" x="896" y="512" />
    <rect fill="#000000" height="96" width="96" x="32" y="608" />
    <rect fill="#000000" height="96" width="96" x="224" y="608" />
    <rect fill="#000000" height="96" width="96" x="416" y="608" />
    <rect fill="#000000" height="96" width="96" x="608" y="608" />
    <rect fill="#000000" height="96" width="96" x="800" y="608" />
    <rect fill="#000000" height="96" width="96" x="128" y="704" />
    <rect fill="#000000" height="96" width="96" x="320" y="704" />
    <rect fill="#000000" height="96" width="96" x="512" y="704" />
    <rect fill="#000000" height="96" width="96" x="704" y="704" />
    <rect fill="#000000" height="96" width="96" x="896" y="704" />
    <rect fill="#000000" height="96" width="96" x="32" y="800" />
    <rect fill="#000000" height="96" width="96" x="224" y="800" />
    <rect fill="#000000" height="96" width="96" x="416" y="800" />
    <rect fill="#000000" height="96" width="96" x="608" y="800" />
    <rect fill="#000000" height="96" width="96" x="800" y="800" />
</svg>
