<svg height="1024" width="1024" xmlns="http://www.w3.org/2000/svg">
    <rect fill="#008000" height="1024" width="1024" x="0" y="0" />
    <rect fill="#FFFFFF" height="648" width="648" x="188" y="188" />
    <rect fill="#FF0000" height="64" width="64" x="192" y="192" />
    <rect fill="#000000" height="64" width="64" x="256" y="192" />
    <rect fill="#FF0000" height="64" width="64" x="320" y="192" />
    <rect fill="#000000" height="64" width="64" x="384" y="192" />
    <rect fill="#FF0000" height="64" width="64" x="448" y="192" />
    <rect fill="#000000" height="64" width="64" x="512" y="192" />
    <rect fill="#FF0000" height="64" width="64" x="576" y="192" />
    <rect fill="#000000" height="64" width="64" x="640" y="192" />
    <rect fill="#FF0000" height="64" width="64" x="704" y="192" />
    <rect fill="#000000" height="64" width="64" x="768" y="192" />
    <rect fill="#000000" height="64" width="64" x="192" y="256" />
    <rect fill="#FF0000" height="64" width="64" x="256" y="256" />
    <rect fill="#000000" height="64" width="64" x="320" y="256" />
    <rect fill="#FF0000" height="64" width="64" x="384" y="256" />
    <rect fill="#000000" height="64" width="64" x="448" y="256" />
    <rect fill="#FF0000" height="64" width="64" x="512" y="256" />
    <rect fill="#000000" height="64" width="64" x="576" y="256" />
    <rect fill="#FF0000" height="64" width="64" x="640" y="256" />
    <rect fill="#000000" height="64" width="64" x="704" y="256" />
    <rect fill="#FF0000" height="64" width="64" x="768" y="256" />
    <rect fill="#FF0000" height="64" width="64" x="192" y="320" />
    <rect fill="#000000" height="64" width="64" x="256" y="320" />
    <rect fill="#FF0000" height="64" width="64" x="320" y="320" />
    <rect fill="#000000" height="64" width="64" x="384" y="320" />
    <rect fill="#FF0000" height="64" width="64" x="448" y="320" />
    <rect fill="#000000" height="64" width="64" x="512" y="320" />
    <rect fill="#FF0000" height="64" width="64" x="576" y="320" />
    <rect fill="#000000" height="64" width="64" x="640" y="320" />
    <rect fill="#FF0000" height="64" width="64" x="704" y="320" />
    <rect fill="#000000" height="64" width="64" x="768" y="320" />
    <rect fill="#000000" height="64" width="64" x="192" y="384" />
    <rect fill="#FF0000" height="64" width="64" x="256" y="384" />
    <rect fill="#000000" height="64" width="64" x="320" y="384" />
    <rect fill="#FF0000" height="64" width="64" x="384" y="384" />
    <rect fill="#000000" height="64" width="64" x="448" y="384" />
    <rect fill="#FF0000" height="64" width="64" x="512" y="384" />
    <rect fill="#000000" height="64" width="64" x="576" y="384" />
    <rect fill="#FF0000" height="64" width="64" x="640" y="384" />
    <rect fill="#000000" height="64" width="64" x="704" y="384" />
    <rect fill="#FF0000" height="64" width="64" x="768" y="384" />
    <rect fill="#FF0000" height="64" width="64" x="192" y="448" />
    <rect fill="#000000" height="64" width="64" x="256" y="448" />
    <rect fill="#FF0000" height="64" width="64" x="320" y="448" />
    <rect fill="#000000" height="64" width="64" x="384" y="448" />
    <rect fill="#FF0000" height="64" width="64" x="448" y="448" />
    <rect fill="#000000" height="64" width="64" x="512" y="448" />
    <rect fill="#FF0000" height="64" width="64" x="576" y="448" />
    <rect fill="#000000" height="64" width="64" x="640" y="448" />
    <rect fill="#FF0000" height="64" width="64" x="704" y="448" />
    <rect fill="#000000" height="64" width="64" x="768" y="448" />
    <rect fill="#000000" height="64" width="64" x="192" y="512" />
    <rect fill="#FF0000" height="64" width="64" x="256" y="512" />
    <rect fill="#000000" height="64" width="64" x="320" y="512" />
    <rect fill="#FF0000" height="64" width="64" x="384" y="512" />
    <rect fill="#000000" height="64" width="64" x="448" y="512" />
    <rect fill="#FF0000" height="64" width="64" x="512" y="512" />
    <rect fill="#000000" height="64" width="64" x="576" y="512" />
    <rect fill="#FF0000" height="64" width="64" x="640" y="512" />
    <rect fill="#000000" height="64" width="64" x="704" y="512" />
    <rect fill="#FF0000" height="64" width="64" x="768" y="512" />
    <rect fill="#FF0000" height="64" width="64" x="192" y="576" />
    <rect fill="#000000" height="64" width="64" x="256" y="576" />
    <rect fill="#FF0000" height="64" width="64" x="320" y="576" />
    <rect fill="#000000" height="64" width="64" x="384" y="576" />
    <rect fill="#FF0000" height="64" width="64" x="448" y="576" />
    <rect fill="#000000" height="64" width="64" x="512" y="576" />
    <rect fill="#FF0000" height="64" width="64" x="576" y="576" />
    <rect fill="#000000" height="64" width="64" x="640" y="576" />
    <rect fill="#FF0000" height="64" width="64" x="704" y="576" />
    <rect fill="#000000" height="64" width="64" x="768" y="576" />
    <rect fill="#000000" height="64" width="64" x="192" y="640" />
    <rect fill="#FF0000" height="64" width="64" x="256" y="640" />
    <rect fill="#000000" height="64" width="64" x="320" y="640" />
    <rect fill="#FF0000" height="64" width="64" x="384" y="640" />
    <rect fill="#000000" height="64" width="64" x="448" y="640" />
    <rect fill="#FF0000" height="64" width="64" x="512" y="640" />
    <rect fill="#000000" height="64" width="64" x="576" y="640" />
    <rect fill="#FF0000" height="64" width="64" x="640" y="640" />
    <rect fill="#000000" height="64" width="64" x="704" y="640" />
    <rect fill="#FF0000" height="64" width="64" x="768" y="640" />
    <rect fill="#FF0000" height="64" width="64" x="192" y="704" />
    <rect fill="#000000" height="64" width="64" x="256" y="704" />
    <rect fill="#FF0000" height="64" width="64" x="320" y="704" />
    <rect fill="#000000" height="64" width="64" x="384" y="704" />
    <rect fill="#FF0000" height="64" width="64" x="448" y="704" />
    <rect fill="#000000" height="64" width="64" x="512" y="704" />
    <rect fill="#FF0000" height="64" width="64" x="576" y="704" />
    <rect fill="#000000" height="64" width="64" x="640" y="704" />
    <rect fill="#FF0000" height="64" width="64" x="704" y="704" />
    <rect fill="#000000" height="64" width="64" x="768" y="704" />
    <rect fill="#000000" height="64" width="64" x="192" y="768" />
    <rect fill="#FF0000" height="64" width="64" x="256" y="768" />
    <rect fill="#000000" height="64" width="64" x="320" y="768" />
    <rect fill="#FF0000" height="64" width="64" x="384" y="768" />
    <rect fill="#000000" height="64" width="64" x="448" y="768" />
    <rect fill="#FF0000" height="64" width="64" x="512" y="768" />
    <rect fill="#000000" height="64" width="64" x="576" y="768" />
    <rect fill="#FF0000" height="64" width="64" x="640" y="768" />
    <rect fill="#000000" height="64" width="64" x="704" y="768" />
    <rect fill="#FF0000" height="64" width="64" x="768" y="768" />
</svg>
