<svg height="1024" width="1024" xmlns="http://www.w3.org/2000/svg">
    <rect fill="#008000" height="1024" width="1024" x="0" y="0" />
    <rect fill="none" height="864" stroke="#FFFFFF" stroke-width="4" width="864" x="80" y="80" />
    <line stroke="#FFFFFF" stroke-width="4" x1="176" x2="176" y1="80" y2="944" />
    <line stroke="#FFFFFF" stroke-width="4" x1="272" x2="272" y1="80" y2="944" />
    <line stroke="#FFFFFF" stroke-width="4" x1="368" x2="368" y1="80" y2="944" />
    <line stroke="#FFFFFF" stroke-width="4" x1="464" x2="464" y1="80" y2="944" />
    <line stroke="#FFFFFF" stroke-width="4" x1="560" x2="560" y1="80" y2="944" />
    <line stroke="#FFFFFF" stroke-width="4" x1="656" x2="656" y1="80" y2="944" />
    <line stroke="#FFFFFF" stroke-width="4" x1="752" x2="752" y1="80" y2="944" />
    <line stroke="#FFFFFF" stroke-width="4" x1="848" x2="848" y1="80" y2="944" />
    <line stroke="#FFFFFF" stroke-width="4" x1="80" x2="944" y1="176" y2="176" />
    <line stroke="#FFFFFF" stroke-width="4" x1="80" x2="944" y1="272" y2="272" />
    <line stroke="#FFFFFF" stroke-width="4" x1="80" x2="944" y1="368" y2="368" />
    <line stroke="#FFFFFF" stroke-width="4" x1="80" x2="944" y1="464" y2="464" />
    <line stroke="#FFFFFF" stroke-width="4" x1="80" x2="944" y1="560" y2="560" />
    <line stroke="#FFFFFF" stroke-width="4" x1="80" x2="944" y1="656" y2="656" />
    <line stroke="#FFFFFF" stroke-width="4" x1="80" x2="944" y1="752" y2="752" />
    <line stroke="#FFFFFF" stroke-width="4" x1="80" x2="944" y1="848" y2="848" />
    <circle cx="368" cy="368" fill="#FFFFFF" r="8" />
    <circle cx="656" cy="368" fill="#FFFFFF" r="8" />
    <circle cx="368" cy="656" fill="#FFFFFF" r="8" />
    <circle cx="656" cy="656" fill="#FFFFFF" r="8" />
</svg>